# xmcd CD database file
#
# Track frame offsets:
#	182
#	20345
#	41357
#	58132
#	80220
#	87995
#	127195
#	148457
#	169632
#	191090
#	198670
#	221632
#
# Disc length: 3400 seconds
#
# Revision: 1
# Processed by: cddbd v1.5PL3 Copyright (c) Steve Scherf et al.
# Submitted via: CDex 1.50beta9
#
DISCID=bb0d460c
DTITLE=Yousuke Yamashita - RESONANT MEMORIES
DYEAR=2000
DGENRE=Jazz
TTITLE0='Round Midnight
TTITLE1=If You Could See Me Now
TTITLE2=Greensleeves
TTITLE3=You Are Valentine
TTITLE4=Interlude #1
TTITLE5=Mt. Semba
TTITLE6=I Fall in Love Too Easily
TTITLE7=A Night in Tunisia
TTITLE8=Brightness
TTITLE9=Interlude #2
TTITLE10=I'm a Fool to Want You
TTITLE11=Bolero
EXTD=YEAR: 2000
EXTT0=
EXTT1=
EXTT2=
EXTT3=
EXTT4=
EXTT5=
EXTT6=
EXTT7=
EXTT8=
EXTT9=
EXTT10=
EXTT11=
PLAYORDER=
